<?xml version="1.0" encoding="UTF-8"?><svg id="Layer_2" xmlns="http://www.w3.org/2000/svg" viewBox="0 0 225.5 225.5"><g id="Layer_1-2"><g><path d="M112.7,0C50.3,0,0,50.6,0,113c.1,62.1,50.7,112.6,112.9,112.5s112.6-50.5,112.6-112.8S175-.1,112.7,0Zm0,212.4c-55-.1-99.7-44.8-99.6-99.8,.1-55,44.7-99.5,99.6-99.5s99.7,44.7,99.7,99.7-44.7,99.6-99.7,99.6Z"/><path d="M128.2,59.5c-8.2-3.7-16.9-4.2-25.6-2.5-6.2,1.2-11.8,3.8-16,8.7-2.9,3.4-4.9,7.2-4.2,11.9,.6,3.5,2.9,5.6,6.3,6.4,3.7,1,5.7,.2,8-2.9,.7-.9,1.3-1.9,2-2.9,1.8-2.4,4.2-4,7.1-4.7,3.4-.8,6.8-.8,10.1,0,4.6,1,7.7,4.1,8.3,8,.5,4-.9,7.4-3.6,10.2-2.3,2.3-4.8,4.5-7.5,6.5-7.9,5.9-12,13.7-11.9,23.6,.1,1.5,.1,2.9,.2,4.4,.3,3.2,1.9,5.5,4.5,5.8s5.3,.3,7.8-.2c3.1-.6,4.4-2.6,4.5-5.8v-3.4c0-5.2,2.1-9.5,6-12.9,1-.9,2.1-1.7,3.1-2.6,4.4-3.6,8.4-7.5,11.4-12.4,3.5-5.7,5.3-11.9,3.9-18.6-1.8-8.1-7.1-13.3-14.4-16.6Z"/><path d="M109.5,142.6c-6.2,0-11.2,5.1-11.3,11.3,0,6.3,5,11.4,11.1,11.5,6.2,.1,11.5-5.1,11.5-11.4,.1-6.2-5.1-11.4-11.3-11.4Z"/></g></g></svg>