<?xml version="1.0" encoding="UTF-8"?><svg id="Layer_2" xmlns="http://www.w3.org/2000/svg" viewBox="0 0 281.38 266.08"><g id="Layer_1-2"><g><path d="M221.48,108.7h-.4c-4.2,0-8.3,1.6-11.3,4.6-2.9,3-4.7,7-4.8,11.3-.1,4.4,1.5,8.6,4.6,11.8,3,3.1,7.1,4.9,11.6,4.9,4.2,0,8.2-1.6,11.2-4.6,3-2.9,4.8-6.9,4.9-11.1,.1-4.5-1.4-8.7-4.5-11.9-3-3.1-7-4.9-11.3-5Zm-.4,23.9c-2,0-3.9-.8-5.2-2.3-1.4-1.5-2.2-3.5-2.1-5.6,0-4,3.3-7.2,7.4-7.2v-.8l.2,.8c2,0,3.8,.9,5.2,2.3,1.4,1.5,2.1,3.5,2.1,5.6-.1,4-3.5,7.2-7.6,7.2Z"/><path d="M269.98,80.7c.1-4.5-1.4-8.7-4.5-11.9-3-3.1-7-4.9-11.3-5h-.4c-4.2,0-8.3,1.6-11.3,4.6-2.9,3-4.7,7-4.8,11.3-.1,4.4,1.5,8.6,4.6,11.8,3,3.1,7.1,4.9,11.6,4.9,4.2,0,8.2-1.6,11.2-4.6,3-2.9,4.8-6.9,4.9-11.1Zm-16.2,7c-2,0-3.9-.8-5.2-2.3-1.4-1.5-2.2-3.5-2.1-5.6,0-4,3.3-7.2,7.4-7.2v-.8l.2,.8c2,0,3.8,.9,5.2,2.3,1.4,1.5,2.1,3.5,2.1,5.6-.1,4-3.5,7.2-7.6,7.2Z"/><path d="M233.88,32.6c4.2,0,8.2-1.6,11.2-4.6,3-2.9,4.8-6.9,4.9-11.1,.1-4.5-1.4-8.7-4.5-11.9-3-3.1-7-4.9-11.3-5h-.4c-4.2,0-8.3,1.6-11.3,4.6-2.9,3-4.7,7-4.8,11.3-.1,4.4,1.5,8.6,4.6,11.8,3,3.1,7.1,4.9,11.6,4.9Zm0-23.8v-.8l.2,.8c2,0,3.8,.9,5.2,2.3,1.4,1.5,2.1,3.5,2.1,5.6-.1,4-3.5,7.2-7.6,7.2-2,0-3.9-.8-5.2-2.3-1.4-1.5-2.2-3.5-2.1-5.6,0-4,3.3-7.2,7.4-7.2Z"/><path d="M200.48,154.7c.6-4.7-3.6-7-7.6-6.4H54.18c40.5-25.8,81.1-51.6,121.6-77.3,3.6-2.3,4.1-4.8,1.8-8.4-17.1-29.7-26.2-38.9-56.8-16.3,8.9-27.7-32.3-40.8-39.9-12-3,13.2-6,26.8-8.9,40.2-9.5-2.1-19.1-4.3-28.6-6.4-23.1-5.8-36.4,25.5-16.2,37.8-15,8.7-35.3,20.3-23.8,40.4,4.1,6.8,8.4,13.3,12.6,19.9,4.5,6.8,11.5-1.6,16.3-3.9,.1,26.3-.1,54.5,0,80.8,0,13.1,9.4,22.6,22.1,22.6h50.3c122.9,.4,91.3,10.9,95.8-111Zm-60.7-108.6c6.9-4.4,13.6-2.8,18,4,3,4.8,6.2,9.9,9.3,14.6-16.4,10.4-33.5,21.2-49.9,31.7l-16.3-25.6c12.8-8.2,26-16.6,38.9-24.7Zm-43.3-16.9c7.5-3.8,16.9,3.2,15.2,11.4-1,3.7-1.1,9-3.1,13.4-8.5,5.5-17.1,10.9-25.4,16.3,3.4-9.8,4.5-37.6,13.3-41.1Zm-4,47l16.3,25.6-27.7,17.6-16.3-25.6,27.7-17.6Zm-65.2,9.6c5-15.8,24.5-3.9,35.9-3-2.3,1.4-4.5,2.8-6.8,4.2-6.9,3.3-13.3,10.4-20.8,11.7-6.1-1.5-9.5-6.7-8.3-12.9Zm-5.4,71.3c-5.2-9.4-19.5-23.1-6.3-31.9,9.8-6.3,19.9-12.7,29.6-18.9,3.7-2.4,7.4-4.7,11.2-7.1l16.3,25.6-50.8,32.3Zm62.6,98.6h-29.7c-7.8,0-12.6-4.8-12.6-12.5,0-28.3-.1-56.5,0-84.8,14.4,0,28.7-.1,42.3,0,.1,30.5,0,66.7,0,97.3Zm42.5-.5v.6c-10.8-.1-21.7,0-32.5,0,.1-32.1-.1-64.9,0-97.3,11.7-.1,23.5,0,32.5,0,.1,32.3,0,64.2,0,96.7Zm10,.5c0-31.8,0-64.3-.1-96.4,0-.6,0-.8,.1-.9,17.5-.1,35.6-.1,53.4,0-4,105.4,20.2,98-53.4,97.3Z"/><path d="M213.18,81.3c3.9,.7,7.7,2.2,11.6,3.4,2.5,.8,4.7-.6,4.8-3.8-.5-.5-1.2-1.7-2.3-2.3-1.7-.9-3.7-1.5-5.5-2.1-27.6-8.8-49.9,5.4-61.9,26.8-1.1,1.9-.6,3.8,1.1,4.8,1.7,1,3.4,.4,4.7-1.5,.2-.4,.4-.7,.6-1.1,3.1-5.4,7-10.1,11.7-14.2,10-8.9,21.8-12.5,35.2-10Z"/><path d="M187.28,60.2c-.6,2.1,.7,3.8,3.4,4.4,4.2,.8,8.5,1.4,12.7,2.1,11.6-.4,20.7-4.6,26.5-12.6,3.2-4.5,5-9.5,5.9-14.8,.4-2.1-.7-3.7-2.5-4-1.9-.3-3.1,.5-3.8,2.3-.2,.7-.4,1.4-.5,2-2.3,9.6-7.4,16.7-17.6,19.1-6.4,1.5-12.8,1-19.1-.6-2.6-.7-4.4,0-5,2.1Z"/><path d="M175.28,114.7c-10.2,2.1-18.4,7.2-24.7,15.5-1.5,1.9-1.2,3.9,.3,5.1,1.6,1.2,3.6,.8,5.1-1.2,7.7-9.9,18-14.2,30.4-13.4,2.9,.2,5.9,.8,9.6,1.3,1,0,2.5-1.2,2.7-2.9s-1-3.2-3.1-3.7c-6.7-1.7-13.5-2.1-20.3-.7Z"/><path d="M190.38,37.2c3.2,.1,6-2.6,6.1-5.9,.1-3.2-2.7-6.2-6-6.2s-6,2.7-6.1,5.9c0,3.3,2.7,6.1,6,6.2Z"/><path d="M265.28,116.3c-3.3,.1-5.8,2.7-5.8,6s2.7,6,6.1,5.9c3.3-.1,5.8-2.7,5.8-6-.1-3.4-2.7-5.9-6.1-5.9Z"/><path d="M143.18,146.4c3.2,0,5.9-2.7,6-6,0-3.3-2.8-6.2-6-6.1-3.2,0-5.9,2.8-6,6-.1,3.3,2.7,6.1,6,6.1Z"/><path d="M275.38,32.6c-3.3,0-5.9,2.5-6,5.8s2.6,6.1,6,6.1,6-2.5,6-5.8-2.7-6-6-6.1Z"/><path d="M134.58,106.5c-3.3,0-5.9,2.6-5.9,5.9s2.7,6.1,6,6.1,5.9-2.7,6-5.9c0-3.4-2.7-6.1-6.1-6.1Z"/></g></g></svg>