<?xml version="1.0" encoding="UTF-8"?><svg id="Layer_2" xmlns="http://www.w3.org/2000/svg" viewBox="0 0 194.46 150"><g id="Layer_1-2"><g><path d="M194.46,17.48c0-.71,0-1.43-.02-2.14-.07-1.92-1.19-2.96-2.99-3.03-1.81-.07-2.95,1.02-3.23,2.83-.13,.85-.05,1.74-.05,2.61,0,41,0,82,0,122.99v2.89h-60.69v-.25c4.11-.23,8.22-.39,12.32-.73,1.38-.11,2.87-.43,4.05-1.1,11.75-6.65,21.82-15.27,28.98-26.78,3.76-6.05,7.68-12.21,8.86-19.49,.26-1.63,.28-3.31,.28-4.97,.02-28.41,.01-56.83,.01-85.24,0-4.96-1.36-5.87-6.04-4.55-3.33,.95-6.75,1.84-10.18,2.14-13.94,1.24-27.91,2.19-41.86,3.35-8.75,.73-17.49,1.64-25.69,5.2-.67,.29-1.65,.04-2.43-.17-4.42-1.18-8.75-3.05-13.23-3.53-13.28-1.42-26.64-2.12-39.93-3.47-8.08-.82-16.14-2.04-24.1-3.6-4.67-.92-6.03-.35-6.03,4.38,0,42.58,0,85.16,0,127.74,0,.47-.17,1.04,.03,1.41,.64,1.17,1.22,2.51,2.21,3.3,.92,.74,2.31,1.07,3.54,1.25,7.89,1.16,15.76,2.48,23.69,3.26,8.21,.81,16.47,1.08,24.71,1.59v.2H6.29v-2.95c0-41.08,0-82.15,0-123.23,0-3.53-.96-5.12-3.13-5.17C.94,12.22,0,13.71,0,17.32,0,59.82,0,102.32,0,144.83c0,4.68,.5,5.17,5.17,5.17,61.32,0,122.65,0,183.97,0,4.88,0,5.33-.44,5.33-5.25,0-42.42,0-84.84,0-127.27Zm-100.33,121.3v2.91c-16.88-4.98-34.22-4.64-51.36-6.07-7.39-.62-14.73-1.86-22.09-2.84-1.48-.2-2-.99-2-2.57,.05-40.36,.04-80.72,.04-121.08,0-.47,.04-.94,.07-1.64,4.27,.66,8.3,1.51,12.36,1.85,11.11,.92,22.27,1.37,33.36,2.5,8.62,.88,17.2,2.34,25.73,3.9,3.95,.72,3.87,1.11,3.87,5.04v117.99Zm58.7-11.16c.37-5.81,.73-11.4,1.08-16.79h14.33c-3.76,6.93-9.22,12.06-15.41,16.79Zm-52.51,14.14v-2.46c0-39.87,.02-79.73-.06-119.6,0-2.2,.81-3.25,2.71-3.61,7.21-1.34,14.38-3.07,21.65-3.81,14.23-1.44,28.52-2.26,42.78-3.44,2.65-.22,5.26-.94,8.18-1.48,.05,.95,.13,1.77,.13,2.59,0,26.97,.01,53.95,0,80.92,0,10.14-4.24,14.32-14.42,13.94-2.97-.11-5.94-.76-8.86-1.41-3.38-.75-4.94,.37-5.09,3.82-.26,6.31-.59,12.62-.95,18.93-.06,1.01-.36,2.02-.66,3-1.85,6.13-3.1,7.04-9.45,7.43-10.49,.65-21,1.24-31.25,3.82-1.52,.38-3.02,.85-4.72,1.33Z"/><path d="M141.97,120.57c-.15-1.97-1.56-2.95-4.13-2.86-.71,.03-1.42,.1-2.13,.15-7.47,.6-14.94,1.2-22.65,1.81-.03-.67-.1-1.52-.1-2.36,0-7.59,.08-15.19-.06-22.78-.04-2.14,.62-2.9,2.72-3.05,12.22-.88,24.43-1.85,36.64-2.8,3.52-.27,7.03-.59,10.81-.9,0,2.47-.05,4.75,.01,7.02,.07,2.29,1.31,3.56,3.3,3.47,2.18-.11,3.02-1.46,3.03-3.48,.01-3.24,.04-6.49,0-9.73-.04-3.17-1.29-4.2-4.48-3.96-12.53,.97-25.06,1.82-37.58,2.9-5.9,.51-11.76,1.42-17.63,2.18-2.15,.28-3.14,1.6-3.14,3.75,0,11.07-.02,22.14,.02,33.22,.01,2.71,1.45,3.89,4.09,3.62,9.19-.95,18.38-1.9,27.57-2.85,2.58-.27,3.85-1.41,3.7-3.36Z"/><path d="M111.15,76.58c8.16-.91,16.32-1.82,24.49-2.54,10.14-.89,20.31-1.59,30.46-2.38,2.03-.16,3.27-1.13,3.22-3.29-.05-1.89-1.41-3.01-3.49-2.67-11.5,.77-23.01,1.41-34.5,2.35-7.15,.58-14.28,1.51-21.39,2.46-2.64,.35-3.63,1.8-3.22,3.74,.41,1.96,1.89,2.61,4.43,2.33Z"/><path d="M110.6,45.38c12.34-1.12,24.68-2.21,37.02-3.32,6.13-.55,12.26-1.13,18.4-1.68,2-.18,3.27-1.08,3.32-3.11-.06-2.32-1.62-3.34-4.39-3.13-12.2,.94-24.41,1.76-36.6,2.81-6.28,.54-12.54,1.46-18.8,2.29-2,.26-3.14,1.49-2.84,3.61,.26,1.86,1.75,2.71,3.89,2.52Z"/><path d="M109.99,61.11c.3-.05,.62-.11,.93-.14,8.56-.88,17.1-1.86,25.67-2.62,9.75-.87,19.52-1.51,29.28-2.32,2.58-.21,3.69-1.49,3.45-3.54-.24-1.99-1.67-2.94-4.2-2.68-2.75,.27-5.48,.7-8.24,.9-11.42,.83-22.85,1.51-34.26,2.43-4.47,.36-8.92,1.14-13.36,1.85-1.79,.29-2.8,1.53-2.55,3.39,.24,1.82,1.43,2.73,3.3,2.74Z"/><path d="M110.77,29.7c12.1-1.11,24.21-2.18,36.31-3.27,6.45-.58,12.9-1.15,19.34-1.76,1.96-.19,3.03-1.35,2.88-3.34-.15-1.98-1.36-2.92-3.19-2.92-.46,.03-.77,.06-1.09,.08-10.47,.78-20.95,1.45-31.41,2.39-8.01,.72-16,1.74-23.99,2.69-1.99,.24-3.17,1.43-2.92,3.57,.23,1.94,1.77,2.78,4.06,2.57Z"/><path d="M87.88,27.93c0-3.05-.68-4.07-3.68-4.49-6.1-.85-12.22-1.65-18.36-2.17-12.05-1.03-24.11-1.83-36.16-2.77-3.31-.26-4.61,.76-4.62,4.04-.02,15.03-.02,30.05,0,45.08,0,2.9,.83,3.82,3.75,4.08,7,.64,14.01,1.19,21.02,1.81,11.02,.97,22.04,1.9,33.04,3,3.72,.37,5-.48,5-4.21,.02-7.36,0-14.71,0-22.07,0-7.43,0-14.87,0-22.3Zm-6.37,39.22c0,.78-.06,1.55-.1,2.32-16.64-1.21-33.14-2.41-49.84-3.62V25.21c6.14,.44,12.12,.84,18.09,1.31,9.69,.76,19.37,1.62,29.06,2.32,2.21,.16,2.86,.99,2.84,3.19-.11,11.7-.05,23.41-.05,35.11Z"/><path d="M84.92,104.97c-2.25-.43-4.51-.89-6.79-1.07-16.39-1.34-32.79-2.61-49.19-3.9-2.3-.16-3.58,.7-3.78,2.57-.24,2.19,1.03,3.23,2.97,3.56,1.71,.29,3.45,.45,5.18,.6,16.85,1.48,33.7,2.92,50.55,4.43,2.09,.19,3.4-.54,3.89-2.54,.43-1.78-.69-3.24-2.82-3.65Z"/><path d="M85.03,120.62c-.39-.09-.78-.15-1.17-.19-18.42-1.69-36.84-3.37-55.26-5.06-1.84,.13-3.13,.82-3.42,2.74-.3,2.01,.71,3.22,2.6,3.58,1.78,.34,3.6,.54,5.41,.67,11.12,.8,22.26,1.47,33.37,2.38,5.82,.48,11.61,1.37,17.42,2.05,2.09,.24,3.58-.78,3.78-2.65,.22-2-.86-3.1-2.74-3.52Z"/><path d="M27.49,90.28c1.77,.37,3.59,.62,5.39,.75,11.12,.81,22.26,1.48,33.37,2.39,5.82,.48,11.62,1.33,17.42,2.03,2.43,.29,4.11-.91,4.15-3.11-.12-2.07-1.5-2.96-3.43-3.13-18.66-1.66-37.32-3.31-55.98-4.93-1.73-.15-2.92,.68-3.22,2.45-.31,1.84,.46,3.16,2.3,3.55Z"/></g></g></svg>