<?xml version="1.0" encoding="utf-8"?>
<!-- Generator: Adobe Illustrator 26.3.1, SVG Export Plug-In . SVG Version: 6.00 Build 0)  -->
<svg version="1.1" id="Layer_1" xmlns="http://www.w3.org/2000/svg" xmlns:xlink="http://www.w3.org/1999/xlink" x="0px" y="0px"
	 viewBox="0 0 229.6 174.9" style="enable-background:new 0 0 229.6 174.9;" xml:space="preserve">
<g>
	<ellipse transform="matrix(0.9999 -1.342253e-02 1.342253e-02 0.9999 -1.4376 0.6863)" cx="50.4" cy="107.4" rx="14.8" ry="14.8"/>
	
		<ellipse transform="matrix(0.9999 -1.242234e-02 1.242234e-02 0.9999 -1.3208 2.2343)" cx="179.2" cy="107.4" rx="14.8" ry="14.8"/>
	<path d="M101.6,70c-2.7-4.1-6.7-6.9-10.1-6.9h0c-0.2,0-0.5,0-0.7,0C85.2,63.8,73.6,74.8,70,78.6c-3,3.1-4,7.5-2.7,11.5
		c1,2.8,3.5,6.3,9.8,6.7c0.8,0.1,1.7,0.1,2.5,0.1c11.1,0,19.7-4.9,23.5-13.5C105,79.2,104.4,74.4,101.6,70z M101.5,82.6
		C98.3,89.7,90.9,95,79.6,95c-0.8,0-1.6,0-2.4-0.1c-5.1-0.3-7.3-2.8-8.2-5.5c-1.1-3.3-0.2-7,2.3-9.6c5.4-5.6,15.5-14.4,19.7-14.9
		c0.2,0,0.3,0,0.5,0C96.6,64.9,105.2,74.3,101.5,82.6z"/>
	<path d="M91.9,73.9c-0.8-0.2-1.6,0.3-1.8,1.1c-2.4,9.5-12.9,9.2-13.3,9.2c-0.8,0-1.5,0.6-1.6,1.4c0,0.8,0.6,1.6,1.4,1.6
		c0.2,0,0.5,0,0.7,0c4.8,0,13.5-2.3,15.7-11.5C93.2,75,92.7,74.1,91.9,73.9z"/>
	<path d="M138.8,63.1c-0.2,0-0.5,0-0.7,0c-3.3,0-7.4,2.8-10.1,6.9c-2.8,4.4-3.4,9.2-1.6,13.3c3.9,8.6,12.4,13.5,23.5,13.5
		c0.8,0,1.6,0,2.5-0.1c6.4-0.4,8.9-3.9,9.8-6.7c1.4-3.9,0.3-8.3-2.7-11.5C156,74.8,144.5,63.8,138.8,63.1z M160.6,89.5
		c-0.9,2.7-3.1,5.2-8.2,5.5c-0.8,0.1-1.6,0.1-2.4,0.1c-11.3,0-18.7-5.3-21.9-12.5c-3.7-8.3,4.8-17.7,10-17.7c0.2,0,0.3,0,0.5,0
		c4.2,0.5,14.3,9.3,19.7,14.9C160.8,82.4,161.8,86.1,160.6,89.5z"/>
	<path d="M152.9,84.2c-0.4,0-11,0.4-13.3-9.2c-0.2-0.8-1-1.3-1.8-1.1c-0.8,0.2-1.3,1-1.1,1.8c2.3,9.1,10.9,11.5,15.7,11.5
		c0.2,0,0.5,0,0.7,0c0.8,0,1.5-0.8,1.4-1.6C154.4,84.8,153.7,84.2,152.9,84.2z"/>
	<path d="M129.6,101.9c-1.6,1.1-3.6,1.8-5.9,1.8c-3.4,0-6.4-1.7-8.1-4.1V94c0.2-0.1,0.4-0.2,0.5-0.4l1.6-1.7
		c1.2-1.3,0.3-3.3-1.4-3.3h-3.2c-1.7,0-2.6,2.1-1.4,3.3l1.6,1.7c0.2,0.2,0.3,0.3,0.5,0.4v5.6c-1.6,2.4-4.6,4.1-8.1,4.1
		c-2.2,0-4.3-0.7-5.9-1.8c-0.4-0.3-0.9,0-0.9,0.5c0,0.2,0.1,0.4,0.2,0.5c1.8,1.3,4.1,2.1,6.6,2.1c3.5,0,6.6-1.5,8.5-3.9
		c0.2-0.3,0.7-0.3,0.9,0c1.8,2.2,4.7,3.7,7.9,3.9v3.1c0,1.2,1,2.1,2.1,2.1c1.2,0,2.1-1,2.1-2.1v-3.5c0-0.1,0-0.1,0-0.2
		c1-0.4,2-0.8,2.9-1.5c0.2-0.1,0.2-0.3,0.2-0.5C130.6,101.9,130,101.6,129.6,101.9z"/>
	<path d="M209.1,50.6c0.1-0.1,0.1-0.2,0.2-0.3c12.7-20.8,6.6-36.1-8.8-45.4c-14.2-8.6-36.7-5.7-47.6,7.6
		c-11.9-3.7-24.7-5.8-38.1-5.8l-1.5,0v0c-12.8,0.1-25.1,2.2-36.6,5.8C65.9-0.8,43.4-3.7,29.2,4.9c-15.4,9.4-21.5,24.6-8.8,45.4
		c0.1,0.1,0.1,0.2,0.2,0.3C7.6,67.1,0,87.2,0,108.8c0,14.9,2.4,47.5,5.6,60.2l0.3,1.1l37.9,0c2.5,2.6,6,3.8,10.4,3.6
		c0.7,0.4,2.4,1.2,4.9,1.2c1.3,0,2.7-0.2,4.4-0.7c1.2,0.2,5.1,0.3,9.1-2.8c0.5-0.4,1-0.8,1.4-1.3l81.5,0c0.5,0.5,0.9,0.9,1.4,1.3
		c4,3.1,7.9,2.9,9.1,2.8c1.7,0.5,3.1,0.7,4.4,0.7c2.5,0,4.2-0.7,4.9-1.2c4.4,0.2,7.9-1,10.4-3.6l37.9,0l0.3-1.1
		c3.2-12.8,5.6-45.3,5.6-60.2C229.6,87.2,222,67.1,209.1,50.6z M175.1,171.1c-0.3,0-0.6,0.1-0.9,0.3c-0.1,0.1-2.7,1.9-7.7,0.3
		c-0.2-0.1-0.4-0.1-0.7,0c0,0-3.6,0.7-7.4-2.2c-3.7-2.9-8.3-9.9-9.2-26.8c0-0.7-0.6-1.3-1.4-1.2c-0.7,0-1.3,0.6-1.2,1.4
		c0,0.2,0,0.3,0,0.5c-10.5-0.4-21.2-0.6-32.1-0.6v0c-10.8,0-21.5,0.2-32,0.6c0-0.2,0-0.3,0-0.5c0-0.7-0.5-1.3-1.2-1.4
		c-0.7,0-1.3,0.5-1.4,1.2c-0.8,16.8-5.4,23.8-9.1,26.7c-3.8,3-7.3,2.3-7.4,2.3c-0.2,0-0.5,0-0.7,0c-5,1.6-7.6-0.2-7.7-0.3
		c-0.2-0.2-0.5-0.3-0.9-0.3c-4.2,0.3-7.3-0.8-9.4-3.4c-5.9-7.2-1.8-23.3-1.8-23.4c0.2-0.7-0.2-1.4-0.9-1.6c-0.7-0.2-1.4,0.2-1.6,0.9
		c0,0.1-0.2,1-0.5,2.2c-11.9,1-23.4,2.3-34.6,3.8C4,135.4,3,118.4,3,108.8C3,54.2,53.1,9.7,114.8,9.7l1.5,0v0
		c61,0.7,110.4,44.9,110.4,99.1c0,9.6-1,26.6-2.6,40.8c-11.2-1.5-22.8-2.8-34.7-3.8c-0.2-1.2-0.5-2.1-0.5-2.2
		c-0.2-0.7-0.9-1.1-1.6-0.9c-0.7,0.2-1.1,0.9-0.9,1.6c0,0.2,4.1,16.2-1.8,23.4C182.5,170.3,179.4,171.4,175.1,171.1z"/>
</g>
</svg>
