<?xml version="1.0" encoding="UTF-8"?><svg id="Layer_2" xmlns="http://www.w3.org/2000/svg" viewBox="0 0 220.78 221.23"><g id="Layer_1-2"><g><path d="M136.2,40c4.55-14.06,12.83-24.82,25.07-32.31,10.95-6.69,22.73-9.7,35.5-6.27,13.64,3.66,23.2,15.56,23.94,29.71,.8,15.37-5.17,28.09-15.62,38.94-2.96,3.08-7.03,3.19-9.87,.56-2.93-2.71-3.05-6.91-.08-10.1,5.99-6.43,10.46-13.62,11.52-22.53,1.87-15.66-7.82-25.49-23.46-23.83-14.03,1.49-29.54,14.66-32.9,28.11,6.24,1.05,12.47,2.09,18.69,3.16,3.92,.67,5.94,2.47,6.55,6.23,3.89,24.01,7.91,48.01,11.48,72.07,1.66,11.2-2.02,21.11-9.96,29.13-19.13,19.34-38.36,38.58-57.67,57.75-14.12,14.02-36.11,14.16-50.25,.19-19.64-19.41-39.17-38.93-58.55-58.6-14.41-14.63-14.03-36.7,.48-51.2,18.66-18.65,37.32-37.31,55.94-56.01,9.35-9.4,20.45-12.99,33.55-10.73,11.77,2.03,23.59,3.8,35.61,5.72Zm12.64,16.18c.41,4.37,2.15,7.59,4.68,10.5,3.23,3.72,3.18,7.77-.03,10.56-3.01,2.62-7.17,2.11-10.31-1.32-5.09-5.56-7.79-12.18-8.45-19.63-.16-1.85-.71-2.62-2.64-2.91-11.82-1.8-23.61-3.8-35.42-5.65-7.13-1.11-13.5,.84-18.59,5.9-19.44,19.32-38.83,38.68-58.07,58.19-8.29,8.4-8.21,21.85,.06,30.23,19.4,19.64,38.9,39.18,58.48,58.64,8.77,8.72,22.2,8.89,30.92,.26,19.41-19.2,38.63-38.58,57.87-57.96,4.64-4.67,6.67-10.48,6.09-17.06-.25-2.84-.84-5.65-1.3-8.48-3.06-18.97-6.12-37.93-9.26-56.89-.14-.86-1.04-2.11-1.78-2.27-3.96-.85-7.98-1.41-12.25-2.12Z"/><path d="M73.62,157.49c-2.77,2.18-4.72,5.87-8.93,5.19-1.52-.25-3.16-.97-4.32-1.97-2.23-1.93-2.79-4.73-1.52-7.28,1.1-2.21,3.03-4.01,4.75-6.18-3.87-4.36-6.21-9.44-6.33-15.43-.12-5.99,1.73-11.26,5.62-15.81,2.91-3.4,7.28-4.06,10.32-1.56,3.15,2.58,3.33,6.72,.44,10.34-3.69,4.63-3.48,9.23,.63,13.41,2.94,2.99,5.88,5.98,8.9,8.89,3.87,3.74,9.7,3.8,13.23,.23,3.69-3.74,3.59-9.15-.33-13.17-2.85-2.93-5.79-5.78-8.67-8.68-9.32-9.4-10.01-22.89-1.66-32.34,8.34-9.44,21.78-10.31,32.27-2.08,.32,.25,.67,.46,1.19,.81,2.84-2.27,4.98-6.13,9.44-5.15,1.5,.33,3.12,1.18,4.17,2.28,3.1,3.27,2.2,6.25-3.65,12.96,3.52,4.05,5.93,8.68,6.35,14.19,.53,6.91-1.54,12.92-6.28,17.95-2.68,2.85-6.95,3.09-9.69,.74-2.97-2.56-3.24-6.55-.67-9.88,4.19-5.42,3.97-9.5-.81-14.33-2.73-2.77-5.45-5.54-8.25-8.24-4.05-3.91-9.84-3.99-13.45-.27-3.66,3.77-3.5,9.04,.49,13.16,3.06,3.16,6.25,6.19,9.29,9.36,8.76,9.16,9.02,22.84,.66,31.92-8.36,9.09-21.55,9.95-31.6,2.07-.47-.37-.99-.69-1.58-1.1Z"/></g></g></svg>