<?xml version="1.0" encoding="UTF-8"?><svg id="Layer_2" xmlns="http://www.w3.org/2000/svg" viewBox="0 0 153.4 150"><g id="Layer_1-2"><g><path d="M62.62,94.76c1.04-.23,2.44-1.25,2.78-2.34,.33-1.08-.23-2.65-.95-3.5-.5-.6-1.52-.92-3.02-.94-2.95-.05-5.9-.04-8.85-.04h-9.36c-2.19,0-4.38-.01-6.56,.04-2.09,.05-3.53,1.4-3.58,3.37-.05,1.94,1.28,3.33,3.39,3.55,.42,.04,.85,.04,1.27,.03h.38c6.54,0,13.09,0,19.63,0,.37-.03,.84,.01,1.26,.02,.42,.01,.85,.03,1.27,.03,.78,0,1.57-.04,2.34-.21Z"/><path d="M37.27,53.39c1.65,0,3.3,.01,4.94,.01,1.25,0,2.51,0,3.77,0h6.87c2.95,0,5.9-.01,8.85,0,1.77-.02,2.94-.63,3.6-1.94,.56-1.11,.53-2.31-.07-3.29-.67-1.09-1.97-1.74-3.48-1.75-7.65-.02-15.3-.02-22.95,0h-1.48c-2.6,0-4.23,1.33-4.25,3.46,0,.95,.3,1.77,.9,2.37,.74,.75,1.87,1.14,3.29,1.15Z"/><path d="M53.28,108.78h-.3q-7.79-.01-15.58,0h-.3c-1.35,0-2.44,.38-3.14,1.09-.59,.59-.9,1.42-.89,2.37,.02,2.12,1.54,3.4,4.08,3.41,.63,0,1.06,0,1.35,0h6.58c2.75,0,5.51,0,8.25,0,2.45-.01,3.88-1.23,3.92-3.36,.02-.98-.28-1.82-.87-2.42-.69-.71-1.76-1.09-3.1-1.09Z"/><path d="M37.13,74.17c4.07,0,8.14,.01,12.21,.01s8.14,0,12.21,0c2.48,0,4.05-1.31,4.1-3.41,.02-.98-.27-1.82-.87-2.43-.72-.74-1.82-1.12-3.26-1.13-2.83-.01-5.65-.01-8.48,0h-7.13c-2.94,0-5.88,0-8.82,.01-2.5,.01-4.04,1.35-4.03,3.48,0,2.08,1.64,3.48,4.06,3.49Z"/><path d="M21.92,94.88c.05,0,.11,0,.16,0,.85,0,1.7-.33,2.36-.94,.69-.63,1.11-1.5,1.15-2.39,.03-.86-.31-1.75-.95-2.43-.66-.7-1.56-1.12-2.47-1.14-.91,0-1.82,.32-2.48,.97-.67,.65-1.03,1.52-1.04,2.46,0,1.85,1.43,3.36,3.28,3.46Z"/><path d="M21.94,74.15s.09,0,.14,0c.83,0,1.67-.34,2.34-.96,.71-.65,1.14-1.54,1.17-2.43,.03-.88-.32-1.77-.96-2.44-.66-.69-1.56-1.09-2.49-1.11h-.05c-.93,0-1.79,.35-2.44,.99-.66,.65-1.02,1.53-1.01,2.47,0,1.83,1.48,3.39,3.3,3.47Z"/><path d="M21.91,53.35c.05,0,.11,0,.17,0,.85,0,1.7-.33,2.35-.92,.69-.63,1.12-1.5,1.16-2.4,.04-.87-.3-1.76-.95-2.46-.66-.71-1.56-1.13-2.46-1.15-.92,0-1.81,.32-2.48,.97-.67,.65-1.05,1.53-1.06,2.46-.01,1.86,1.42,3.39,3.26,3.49Z"/><path d="M22.14,108.79c-1.89,0-3.39,1.36-3.49,3.22-.05,.95,.25,1.84,.87,2.52,.62,.68,1.48,1.07,2.42,1.11,.05,0,.1,0,.15,0,.89,0,1.73-.33,2.39-.94,.68-.63,1.07-1.47,1.1-2.38,.03-.89-.3-1.75-.94-2.42-.66-.69-1.57-1.09-2.5-1.11Z"/><path d="M153.33,114c-.65-4.59-4.05-7.56-8.66-7.56-8.95-.01-17.89-.01-26.84,0h-2.47c2.46-5.73,1.38-10.96-3.21-15.55-.35-.35-.43-.57-.43-.62-.04-2.18-.03-4.35-.03-6.68,0-.04,0-.08-.01-.12v-.57c.9,.2,1.82,.31,2.75,.32h.15c3.48,0,6.78-1.34,9.3-3.77,2.52-2.43,3.96-5.69,4.08-9.18,.12-3.7-1.19-7.18-3.69-9.82-2.45-2.59-5.78-4.06-9.37-4.14h-.3c-.98,0-1.96,.1-2.92,.32V17.64c0-3.7-1.18-4.89-4.86-4.89h-7.34C98.55,4.38,95.35,.45,89.17,.03c-2.64-.18-5.07,.51-7.22,2.05-3.28,2.35-4.8,5.73-4.74,10.59h-10.32c.02-3-.34-6.09-2.57-8.66C61.97,1.27,59-.07,55.46,.02c-2.64,.07-4.99,1-6.98,2.77-2.7,2.41-3.92,5.58-3.8,9.96h-10.26C33.3,4.19,29.99,.26,23.75,.01c-2.73-.09-5.18,.69-7.31,2.35-3.05,2.39-4.43,5.7-4.32,10.39H4.75c-3.59,0-4.75,1.17-4.75,4.8v127.75c0,3.51,1.17,4.7,4.65,4.7H91.29c.06,0,.11-.02,.17-.03,7.71,.04,15.42,.03,23.13,.02h9.15c.6-.01,1.2-.04,1.79-.09,8.95-.67,16.12-8.22,16.31-17.19,.04-1.84,.07-3.97-.01-6.06-.02-.59,.13-.82,.73-1.11,2.17-1.05,4.42-2.13,6.57-3.31,2.93-1.6,4.65-4.98,4.19-8.22Zm-38.73-50.73h.15c1.71,.04,3.29,.74,4.45,1.96,1.21,1.27,1.84,2.97,1.78,4.79-.11,3.41-2.98,6.19-6.46,6.19h0c-1.71-.02-3.3-.71-4.49-1.94-1.22-1.26-1.87-2.95-1.83-4.74,.08-3.51,2.9-6.26,6.41-6.26Zm-6.8,33.08c1.2,1.27,1.84,2.97,1.78,4.79-.07,2.16-1.27,4.18-3.14,5.29h-6.48c-2.01-1.19-3.22-3.4-3.16-5.79,.08-3.53,3.06-6.36,6.56-6.25,1.71,.04,3.29,.73,4.45,1.96ZM86.15,7.65c1.36-.89,2.74-.96,4.1-.21,1.79,.99,2.45,2.51,2.23,5.18h-8.1c-.22-2.28,.05-3.84,1.77-4.97Zm-32.46-.07c1.42-.88,2.85-.88,4.24,0,1.86,1.18,2.16,2.89,1.94,5.09h-8.04c-.23-2.3,.06-3.97,1.86-5.09Zm-32.88,.24c1.4-1.05,2.86-1.17,4.35-.36,1.99,1.09,2.33,2.82,2.12,5.23h-8c-.21-1.92-.15-3.61,1.54-4.88ZM8.53,143.1h0c-.82,0-1.18-.08-1.36-.26-.18-.18-.27-.6-.27-1.27,.04-33.93,.04-67.87,.04-101.8V19.89H27.22c.28,3.57-.85,5.26-3.73,5.63-2.48,.32-3.84,1.77-3.64,3.89,.09,.95,.5,1.74,1.17,2.29,.82,.67,1.99,.93,3.39,.78,5.33-.61,9.38-4.76,9.86-10.09,.06-.67,.09-1.35,.12-2.06l.02-.47h25.38c.23,1.76,0,3.14-.71,4.1-.64,.86-1.68,1.39-3.08,1.58-2.47,.32-3.81,1.79-3.57,3.95,.23,2.09,1.96,3.27,4.42,3.02,5.93-.61,9.94-5.21,9.98-11.46,0-.59,.08-.95,.24-1.1,.15-.15,.47-.23,1.08-.22,5.45,.05,10.91,.04,16.36,.04h6.86c.33,0,.67,.03,.99,.06h.03c.24,1.77,.05,3.06-.59,3.96-.65,.91-1.83,1.5-3.61,1.78-2.15,.34-3.43,1.92-3.21,3.92,.22,1.88,1.79,3.12,3.85,3.07,5.5-.13,10.23-4.72,10.54-10.23,.04-.68,.03-1.36,.02-2.05v-.38h5.25V60.74c-2.13,2.37-3.34,5.43-3.42,8.64-.08,3.48,1.13,6.79,3.42,9.36v8.8c-5.56-.35-9.81,1.7-12.67,6.05-2.56,3.9-2.88,8.22-.98,12.85-7.49,0-14.97,0-22.46,0-4.13,0-7.42,2.51-8.39,6.37-.98,3.94,.75,7.73,4.42,9.65,1.93,1.01,3.96,2.03,6.19,3.09,.55,.26,.69,.48,.67,1.04-.06,1.75-.04,3.52-.02,5.23v.82c.03,2.66,.66,5.16,1.87,7.42,.58,1.08,1.23,2.09,1.94,3.02l-66.67,.02Zm62.81-31.64v8.87c-.39-.19-.78-.38-1.16-.57-1.5-.73-2.92-1.43-4.27-2.25-1.31-.8-1.51-2.44-1.14-3.63,.45-1.43,1.65-2.35,3.14-2.41,.47-.02,.93-.02,1.4-.02,.39,0,.78,0,1.17,0h.86Zm63.78,19.94c0,3.44-1.13,6.39-3.27,8.53-2.13,2.14-5.07,3.27-8.49,3.28h-33.52c-3.42,0-6.35-1.13-8.48-3.28-2.13-2.14-3.26-5.09-3.26-8.53,0-4.48,0-8.96,0-13.45v-6.47h57.02v2.52c0,5.2,0,12.12,0,17.4Zm12.26-13.95h0c-1.36,.85-2.8,1.56-4.32,2.31-.38,.19-.77,.38-1.16,.58v-8.87h.76c.93,0,1.81-.02,2.7,.01,1.44,.06,2.59,.93,3.07,2.34,.42,1.22,.19,2.86-1.05,3.63Z"/><path d="M88.08,88.33h.13c2.85,0,5.55-1.1,7.61-3.09,2.06-2,3.25-4.67,3.34-7.52,.1-3.03-.98-5.88-3.02-8.04-2.01-2.12-4.73-3.33-7.67-3.39h-.25c-2.88,0-5.6,1.1-7.66,3.11-2.06,2.01-3.24,4.71-3.31,7.6-.07,3.01,1.03,5.85,3.1,7.99,2.04,2.11,4.79,3.3,7.72,3.33Zm.14-16.16v-.57l.12,.57c1.36,.03,2.61,.58,3.53,1.56,.96,1.01,1.46,2.36,1.41,3.8-.09,2.71-2.36,4.91-5.13,4.91-1.35-.02-2.62-.56-3.56-1.54-.97-1-1.48-2.34-1.45-3.77,.06-2.79,2.3-4.97,5.09-4.97Z"/><path d="M120.98,92.11c-.07,3.01,1.03,5.85,3.1,7.99,2.04,2.11,4.78,3.3,7.85,3.34,2.85,0,5.56-1.1,7.61-3.09,2.06-1.99,3.24-4.66,3.34-7.52,.1-3.03-.98-5.88-3.02-8.04-2.01-2.12-4.73-3.32-7.67-3.39h-.25c-2.88,0-5.6,1.1-7.66,3.11-2.06,2.01-3.24,4.71-3.31,7.6Zm10.97-4.83v-.57l.12,.57c1.36,.03,2.61,.58,3.53,1.56,.96,1.01,1.46,2.36,1.41,3.8-.09,2.71-2.36,4.91-5.13,4.91-1.35-.02-2.62-.56-3.56-1.54-.97-1.01-1.49-2.34-1.45-3.77,.06-2.78,2.3-4.97,5.09-4.97Z"/></g></g></svg>