<?xml version="1.0" encoding="UTF-8"?><svg id="Layer_2" xmlns="http://www.w3.org/2000/svg" viewBox="0 0 164.84 150"><defs><style>.cls-1{fill:none;}</style></defs><g id="Layer_1-2"><g><path d="M27.43,62.84h0c0-1.2-.62-2.27-1.54-2.8,.82-.52,1.32-1.46,1.32-2.57,0-1.56-1.13-3.23-3.6-3.23h-6.3v12h6.48c2.18,0,3.64-1.37,3.64-3.4Zm-7.02-5.85h2.67c.58,0,.97,.36,.97,.89,0,.56-.37,.9-.97,.9h-2.67v-1.79Zm0,6.5v-1.96h2.75c.67,0,1.11,.38,1.11,.97,0,.63-.4,.99-1.11,.99h-2.75Z"/><path d="M39.26,62.84c0-1.2-.62-2.27-1.54-2.8,.82-.52,1.32-1.46,1.32-2.57,0-1.56-1.13-3.23-3.6-3.23h-6.3v12h6.48c2.18,0,3.64-1.37,3.64-3.4Zm-7.02-5.85h2.67c.58,0,.97,.36,.97,.89,0,.56-.37,.9-.97,.9h-2.67v-1.79Zm0,6.5v-1.96h2.75c.67,0,1.11,.38,1.11,.97,0,.63-.4,.99-1.11,.99h-2.75Z"/><polygon points="43.9 66.24 47.02 66.24 47.02 57.06 50.97 57.06 50.97 54.24 40.17 54.24 40.17 57.06 43.9 57.06 43.9 66.24"/><path d="M22.87,80c2.26,0,3.98-.99,5.11-2.95l.19-.32-2.71-1.31-.16,.31h0c-.46,.89-1.39,1.45-2.43,1.45-1.77,0-3.11-1.45-3.11-3.36s1.34-3.36,3.11-3.36c1.02,0,1.98,.57,2.43,1.45l.16,.3,2.71-1.33-.18-.32c-.76-1.34-2.26-2.94-5.12-2.94-3.58,0-6.28,2.66-6.28,6.2s2.7,6.19,6.28,6.19Z"/><polygon points="39.07 76.98 32.24 76.98 32.24 67.8 29.14 67.8 29.14 79.8 39.07 79.8 39.07 76.98"/><path d="M45.53,80c3.44,0,5.38-1.85,5.38-5.08v-7.13h-3.14v7.06h0c0,.86-.29,2.31-2.24,2.31-1.47,0-2.28-.82-2.28-2.31v-7.06h-3.14v7.14c0,3.22,1.97,5.06,5.42,5.06Z"/><path d="M131.55,75.78c0-.55-.38-.93-.99-.93h-2.26v1.87h2.26c.61,0,.99-.39,.99-.94Z"/><path d="M130.62,78.26h-2.33v2h2.33c.69,0,1.09-.39,1.09-1,0-.53-.38-.99-1.09-.99Z"/><path d="M121.75,78.26h-2.33v2h2.33c.69,0,1.09-.39,1.09-1,0-.53-.38-.99-1.09-.99Z"/><path d="M148.28,88.42h-2.33v1.99h2.33c.69,0,1.09-.39,1.09-1,0-.53-.38-.99-1.09-.99Z"/><path d="M149.21,85.94c0-.55-.38-.93-.99-.93h-2.26v1.87h2.26c.61,0,.99-.39,.99-.94Z"/><path d="M164.72,33.72c.03-.83-.38-1.58-1.15-2.03V6.04c-2.83-3.75-7.9-5.15-27.82-6.04-19.98,.91-24.9,2.25-27.82,6.03V31.69c-.96,1.81-1.34,13.04-1.44,27.69-5.39-.79-11.06-.87-15.19-.85l.74-29.31c0-4.24-2.41-8.23-8.25-8.23H8.25C2.41,20.98,0,24.97,0,29.21l2.8,110.24c0,2.07,2.41,3.96,4.59,3.96,0,0,19.82,6.03,38.61,6.59h.07c9.59-.28,19.44-2,26.8-3.6,7.54,5.47,19.95,3.33,28.67,2.41,3.14-.6,5.43-1.94,7.1-3.78,2.9,3.76,8.86,4.03,27.12,4.98,22.95-1.21,25.42-1.28,28.67-7.64,.88-8.04,.04-103.42,.29-108.64ZM113.16,10.17c.31-1.2,1.26-1.73,2.52-1.48,0,0,1.65,.34,4.34,.72,2.23,.37,4.57,.63,7.33,.82,2.59,.21,5.45,.35,8.41,.34,2.96,.01,5.82-.13,8.41-.34,2.77-.19,5.1-.45,7.33-.82,2.69-.39,4.34-.72,4.34-.72,1.26-.25,2.21,.28,2.52,1.48,.02,.07,.02,.14,.03,.2-.09,.78-.68,1.37-1.87,1.68-3.03,.8-9.14,2-18.57,2.27-.75,.02-1.48,.03-2.2,.04-.72,0-1.45-.02-2.2-.04-9.43-.26-15.53-1.47-18.57-2.27-1.19-.31-1.78-.91-1.87-1.68,.01-.07,.02-.14,.03-.2Zm-23.26,51.59c15.95,0,28.88,3.05,28.88,6.82,0,.01,0,.02,0,.03,0,.01,0,.02,0,.03,0,.03,0,.06-.01,.08,0,.01,0,.03,0,.04-.43,3.68-13.18,6.63-28.86,6.63-.2,0-.39,0-.59,0-3.47,.02-6.94-.12-10.38-.51-9.75-.95-16.82-3.12-17.78-5.7-.05-.08-.09-.16-.12-.24-.02-.07-.04-.15-.04-.22,0-.03-.01-.06-.01-.08,0-.07,0-.13,.02-.19,.01-.07,.02-.14,.05-.21h0s.02-.05,.03-.07c.71-2.8,8.56-5.15,19.32-6.03,.24,2.27,.64,4.93,.9,7.17,.36,3.01,3.91,4.54,6.41,2.78,1.74-1.22,2.21-2.9,1.8-4.97-.12-1.77-.23-3.55-.35-5.35,.25,0,.5,0,.75,0Zm31.8,13.09h-1.92c0-.05,.01-.1,.02-.15,.02-.52,.18-.97,.4-1.39h1.9c1.61,0,2.44,1.03,2.44,2.16,0,1.07-.66,1.78-1.46,1.94,.9,.14,1.63,1.02,1.63,2.08,0,1.27-.85,2.29-2.47,2.29h-3.21c.19-1.69,.38-3.38,.55-5.07h2.12c.61,0,.99-.39,.99-.94s-.38-.93-.99-.93Zm-.15,8.49c1.93,0,3.01,1.02,3.61,2.07l-1.55,.76c-.35-.69-1.12-1.23-2.06-1.23-1.47,0-2.59,1.18-2.59,2.78s1.12,2.78,2.59,2.78c.94,0,1.7-.53,2.06-1.23l1.55,.75c-.61,1.05-1.68,2.08-3.61,2.08-1.46,0-2.74-.63-3.55-1.68,.25-2.04,.49-4.09,.73-6.13,.77-.6,1.73-.95,2.81-.95Zm-26.65,1.33c2.25,.28,4.53,.4,6.73,.88,2.29,.5,4.52,1.3,6.74,2.07,.53,.18,.91,.79,1.36,1.2-.44,.43-.8,1.03-1.32,1.25-1.75,.7-3.52,1.38-5.34,1.86-3.47,.92-7.02,1.17-10.6,1.11-.63-.01-1.26,.06-1.89,.02-.37-.02-.73-.17-1.1-.27,.07-.23,.07-.33,.12-.36,2.04-.98,2.27-2.71,2.02-4.7-.2-1.62-.29-3.26-.43-4.88-.13-1.45-.62-2.61-2.23-2.92-.14-.03-.27-.12-.39-.2-.06-.04-.09-.11-.33-.42,.61-.12,1.08-.28,1.57-.31,4.52-.28,9.05-.4,13.55-.84,1.83-.18,3.63-.58,5.43-.99v.11s.08-.01,.12-.02c1.61-.24,3.19-.8,4.75-1.34,.34-.11,.69-.21,1.03-.32,.63-.19,1.13-.01,1.04,.69-.47,3.76-.99,7.51-1.51,11.26-.01,.1-.08,.19-.18,.33-.13-.07-.24-.13-.28-.22-1.14-2-2.95-3.04-4.97-3.89v.04c-4.35-1.83-9-2.32-13.66-2.68-1.21-.09-1.9,.53-1.97,1.61-.07,.99,.64,1.79,1.74,1.92Zm-7.42-50.59h.73l-.16,6.61c-.12-2.34-.29-4.61-.57-6.61Zm-41.44,112.21c-16.4-.43-28.67-4.63-38.35-6.5h0c-.71-.14-1.21-.77-1.23-1.49L3.85,34.08h1.55c.95,0,1.8-.68,1.92-1.62,.14-1.13-.74-2.09-1.84-2.09h-1.72l-.03-1.1c-.06-2.51,1.96-4.58,4.47-4.58H83.85c2.51,0,4.53,2.07,4.47,4.58l-.03,1.1h-1.57c-.63-2.15-1.52-3.47-2.82-3.38-3.23-.43-5.78,1.43-5.31,4.89,.02,.12,.19,2.8,.43,6.42H10.92c-1.02,0-1.86,.83-1.86,1.86s.83,1.86,1.86,1.86H79.25c.45,7.17,.97,15.67,.97,16.61-5.53,.52-22.2,2.47-22.91,9.16h-4.61v12h6.48c.45,0,.87-.07,1.25-.18,3.54,20.48,3.26,42.17,8.43,62.33,.25,.43,.51,.83,.79,1.22-6.79,1.51-14.58,2.89-23.63,3.13Zm12.53-71.21c.67,0,1.11,.38,1.11,.97,0,.63-.4,.99-1.11,.99h-2.75v-1.96h2.75Zm-2.75-2.75v-1.79h2.03c.26,.55,.62,1.12,1.07,1.72-.13,.05-.27,.08-.43,.08h-2.67Zm38.03,73.91c-15.55,.68-20.59-.49-23.38-18.19-1.98-12.54-3.85-25.2-4.58-37.78,1.94,2.39,9.57,7.33,11.71,3.69,.07-2.82-4.82-2.56-6.62-4.08v-.05c-.34-.28-.62-.7-.95-1.01,.32-.3,.61-.69,.95-.95v-.17c2.92-1.79,6.51-1.62,9.66-2.81,5.57-6.96-14.22-.91-14.92,2.99-.9-3.74-1.09-7.75-1.69-11.59-.12-1.28,1.38-.57,2.07-.37,6.44,2.47,13.51,1.88,20.17,3.35-1.71,1.62-3.39,1.33-3.11,4.27,.09,3.3-.53,7.04,2.52,9.28-1.36,.18-2.38,.09-3.32,.82-3.35,6.71,23.39,1.92,26.43,.25v.16c2.07-.64,4.85-1.57,5.09-3.76-1.39,12.63-2.85,25.21-4.57,37.78-1.71,12.44-2.46,18-15.45,18.19Zm66.23-6.33c-.01,1.57-1.09,2.93-2.62,3.29-4.85,1.14-12.78,2.59-21.66,2.6h-.05c-8.89,0-16.82-1.46-21.66-2.6-1.44-.34-2.46-1.57-2.59-3.02,.75-2.01,1.22-4.23,1.55-6.53,4.21,1.02,12.76,2.72,22.41,2.76,.11,0,.22,0,.33,0h0c.11,0,.22,0,.33,0,11.07-.04,20.7-2.27,23.98-3.16v6.66Zm-26.51-60.4c0,1.27-.85,2.29-2.47,2.29h-4.6v-8.47h4.46c1.61,0,2.44,1.03,2.44,2.16,0,1.07-.66,1.78-1.46,1.94,.9,.14,1.63,1.02,1.63,2.08Zm-.14,10.86v1.59h-6.92v-8.47h1.8v6.89h5.12Zm1.35-15.46v-1.59h7.57v1.59h-2.96v6.88h-1.82v-6.88h-2.79Zm1.78,8.57v5.03c0,1.18,.65,1.99,1.97,1.99s1.94-.81,1.94-1.99v-5.03h1.83v5.08c0,2.11-1.21,3.54-3.77,3.54s-3.8-1.45-3.8-3.53v-5.09h1.83Zm14.67,6.18c0,1.27-.85,2.29-2.47,2.29h-4.6v-8.47h4.46c1.61,0,2.44,1.03,2.44,2.16,0,1.07-.66,1.78-1.46,1.94,.9,.14,1.63,1.02,1.63,2.08Zm8.85-44.64s0,.02,0,.03v9.39c-3.25,.88-12.5,3.05-24.31,3.05s-21.06-2.17-24.31-3.05v-9.39s0-.02,0-.03v-8.27c.73,.18,1.7,.4,2.89,.64,.02,0,.04,0,.06,.01l.13,.02c.5,.1,1,.19,1.49,.28,1.9,.36,4.24,.71,7.01,1.01,.07,0,.15,.02,.22,.02,3.48,.36,7.63,.61,12.44,.62h.16c4.82,0,8.96-.26,12.44-.62,.07,0,.15-.02,.22-.02,2.77-.29,5.1-.65,7.01-1.01,.49-.09,.98-.18,1.49-.28l.13-.02s.04-.01,.06-.01c1.19-.24,2.15-.46,2.89-.64v8.27Z"/><path class="cls-1" d="M114.67,75.6c-.34,.1-.69,.21-1.03,.32-1.56,.54-3.14,1.11-4.75,1.34-.04,0-.08,.01-.12,.02v-.11c-1.8,.42-3.61,.82-5.43,.99-4.5,.43-9.03,.56-13.55,.84-.49,.03-.97,.19-1.57,.31,.24,.31,.27,.39,.33,.42,.12,.08,.26,.17,.39,.2,1.61,.32,2.11,1.48,2.23,2.92,.14,1.63,.23,3.26,.43,4.88,.25,1.99,.02,3.72-2.02,4.7-.04,.02-.05,.13-.12,.36,.37,.09,.73,.25,1.1,.27,.63,.04,1.26-.03,1.89-.02,3.58,.06,7.14-.2,10.6-1.11,1.82-.48,3.6-1.15,5.34-1.86,.52-.21,.89-.82,1.32-1.25-.45-.41-.83-1.02-1.36-1.2-2.22-.77-4.45-1.57-6.74-2.07-2.2-.48-4.48-.6-6.73-.88-1.1-.14-1.81-.93-1.74-1.92,.07-1.08,.76-1.71,1.97-1.61,4.66,.37,9.3,.85,13.66,2.68v-.04c2.02,.85,3.84,1.88,4.97,3.89,.05,.08,.15,.14,.28,.22,.11-.14,.17-.24,.18-.33,.52-3.75,1.04-7.5,1.51-11.26,.09-.7-.42-.88-1.04-.69Z"/><path class="cls-1" d="M108.77,94.03v-.16c-3.03,1.67-29.77,6.46-26.43-.25,.94-.73,1.96-.64,3.32-.82-3.04-2.24-2.42-5.97-2.52-9.28-.28-2.93,1.4-2.64,3.11-4.27-6.65-1.46-13.72-.88-20.17-3.35-.69-.2-2.19-.91-2.07,.37,.6,3.84,.79,7.84,1.69,11.59,.69-3.9,20.49-9.94,14.92-2.99-3.15,1.18-6.74,1.02-9.66,2.81v.17c-.33,.27-.62,.66-.95,.95,.32,.32,.61,.73,.95,1.01v.05c1.81,1.52,6.7,1.26,6.62,4.08-2.14,3.65-9.76-1.3-11.71-3.69,.72,12.58,2.6,25.24,4.58,37.78,2.79,17.7,7.83,18.87,23.38,18.19,12.99-.19,13.74-5.75,15.45-18.19,1.72-12.58,3.19-25.15,4.57-37.78-.24,2.19-3.02,3.12-5.09,3.76Zm-36.51,13.77c0-3.34,2.89-6.17,6.22-6.14,3.42,.03,6.15,2.77,6.14,6.17,0,3.5-2.62,6.05-6.17,6.05-4.18,0-6.2-3.28-6.19-6.07Zm9.31,33.44c-3.35-.05-6.08-2.37-6.11-6.32-.02-3.27,2.87-6.11,6.18-6.06,3.66,.06,6.11,2.93,6.3,6.23-.29,3.64-2.91,6.2-6.37,6.15Zm8.2-15.17c-3.71-.1-5.94-2.65-6.12-6.11-.18-3.29,2.99-6.49,6.26-6.27,3.07,.21,5.97,2.44,6.19,6.19,0,3.34-2.94,6.28-6.33,6.19Zm10.66,13.19c-3.28-.04-6.12-2.98-6.11-6.11,0-3.27,2.54-6.09,6.12-6.14,3.44-.05,6.55,2.84,6.14,6.15,.42,3.08-2.87,6.15-6.14,6.1Zm1.72-22.9c-2.93,.11-6.42-2.69-6.1-6.13-.35-3.23,3.05-6.11,6.12-6.11,3.75,0,6.26,3.45,6.2,6.13-.08,3.4-2.76,5.98-6.22,6.11Z"/><path d="M81.63,128.86c-3.31-.05-6.2,2.79-6.18,6.06,.03,3.95,2.76,6.27,6.11,6.32,3.46,.05,6.08-2.51,6.37-6.15-.19-3.3-2.64-6.17-6.3-6.23Z"/><path d="M102.16,104.12c-3.08,0-6.47,2.88-6.12,6.11-.31,3.45,3.17,6.25,6.1,6.13,3.46-.13,6.14-2.71,6.22-6.11,.06-2.68-2.46-6.12-6.2-6.13Z"/><path d="M89.91,113.69c-3.27-.22-6.44,2.98-6.26,6.27,.18,3.45,2.41,6.01,6.12,6.11,3.38,.09,6.33-2.85,6.33-6.19-.21-3.75-3.12-5.97-6.19-6.19Z"/><path d="M84.62,107.83c0-3.4-2.73-6.14-6.14-6.17-3.34-.03-6.22,2.81-6.22,6.14,0,2.79,2.02,6.07,6.19,6.07,3.55,0,6.17-2.54,6.17-6.05Z"/><path d="M100.43,127.01c-3.58,.05-6.12,2.87-6.12,6.14,0,3.13,2.83,6.07,6.11,6.11,3.28,.04,6.56-3.03,6.14-6.1,.41-3.31-2.7-6.2-6.14-6.15Z"/></g></g></svg>